<svg id="Layer_1" data-name="Layer 1" xmlns="http://www.w3.org/2000/svg" viewBox="0 0 14.4 12"><defs><style>.cls-1{fill:#fff;}</style></defs><path class="cls-1" d="M5.84,11.56,5.23,11A25.87,25.87,0,0,1,.4,4,5.81,5.81,0,0,1,0,2.63,2.39,2.39,0,0,1,.26,1.55,2.24,2.24,0,0,1,1.35.6,12.12,12.12,0,0,1,2.62.29,28.57,28.57,0,0,1,7.19,0a32.08,32.08,0,0,1,4.43.26,9,9,0,0,1,1.59.41A2.13,2.13,0,0,1,14.4,2.56v.07a5.77,5.77,0,0,1-.49,1.58A26,26,0,0,1,9.15,11a6.45,6.45,0,0,1-.66.58A2.19,2.19,0,0,1,7.21,12,2.26,2.26,0,0,1,5.84,11.56Z" transform="translate(0 0)"/></svg>