<svg width="15" height="12" viewBox="0 0 15 12" fill="none" xmlns="http://www.w3.org/2000/svg">
<path d="M5.8428 11.5569C5.7732 11.4891 5.4756 11.2331 5.2308 10.9946C3.6912 9.59649 1.1712 5.94915 0.402 4.04014C0.2784 3.75022 0.0168 3.01724 0 2.62562C0 2.25037 0.0864 1.89265 0.2616 1.55129C0.5064 1.12577 0.8916 0.784413 1.3464 0.59737C1.662 0.476961 2.6064 0.289917 2.6232 0.289917C3.6564 0.102874 5.3352 0 7.1904 0C8.958 0 10.5684 0.102874 11.6172 0.256016C11.634 0.273551 12.8076 0.460594 13.2096 0.665173C13.944 1.04043 14.4 1.7734 14.4 2.55782V2.62562C14.382 3.13648 13.926 4.21081 13.9092 4.21081C13.1388 6.01695 10.7424 9.58013 9.15 11.0122C9.15 11.0122 8.7408 11.4155 8.4852 11.5908C8.118 11.8644 7.6632 12 7.2084 12C6.7008 12 6.228 11.8469 5.8428 11.5569Z" fill="#949AA3"/>
</svg>
