<svg width="23" height="24" viewBox="0 0 23 24" fill="none" xmlns="http://www.w3.org/2000/svg">
<path d="M17.6093 15.6857V15.84C17.5574 16.1108 17.4125 16.3549 17.1996 16.5302C16.9868 16.7055 16.7194 16.8009 16.4436 16.8H5.98656V13.8171C5.98386 13.6992 5.94743 13.5845 5.88157 13.4867C5.81571 13.3888 5.72319 13.3119 5.61497 13.265C5.50674 13.2181 5.38734 13.2032 5.27091 13.2221C5.15448 13.2409 5.04589 13.2927 4.958 13.3714L0.278031 17.9314C0.189917 18.019 0.119993 18.1232 0.072278 18.2379C0.0245635 18.3526 0 18.4757 0 18.5999C0 18.7242 0.0245635 18.8472 0.072278 18.962C0.119993 19.0767 0.189917 19.1809 0.278031 19.2685L4.958 23.8285C5.06804 23.9363 5.21536 23.9977 5.36942 23.9999C5.5331 23.9999 5.69007 23.9349 5.80581 23.8192C5.92154 23.7034 5.98656 23.5464 5.98656 23.3828V20.3999H17.3865C18.3413 20.3999 19.2569 20.0206 19.9321 19.3455C20.6072 18.6704 20.9865 17.7547 20.9865 16.8V16.0285C21.0319 15.5739 20.8949 15.1198 20.6056 14.7661C20.3162 14.4125 19.8983 14.1883 19.4436 14.1428C18.989 14.0974 18.5349 14.2344 18.1812 14.5237C17.8276 14.8131 17.6034 15.231 17.5579 15.6857" fill="#D0E3FF"/>
<path d="M5.12942 8.31423V8.15994C5.18439 7.89062 5.33015 7.64833 5.54234 7.47359C5.75452 7.29885 6.02026 7.20225 6.29513 7.19995H16.7865V10.1828C16.7892 10.3007 16.8256 10.4154 16.8915 10.5132C16.9573 10.6111 17.0499 10.688 17.1581 10.7349C17.2663 10.7818 17.3857 10.7967 17.5021 10.7779C17.6186 10.759 17.7272 10.7072 17.8151 10.6285L22.495 6.08567C22.5826 5.99952 22.6522 5.8968 22.6997 5.78348C22.7472 5.67017 22.7716 5.54854 22.7716 5.42568C22.7716 5.30282 22.7472 5.18118 22.6997 5.06787C22.6522 4.95456 22.5826 4.85183 22.495 4.76568L17.8151 0.171427C17.7032 0.0663949 17.557 0.00548926 17.4036 0C17.2399 0 17.083 0.0650198 16.9672 0.180756C16.8515 0.296492 16.7865 0.453463 16.7865 0.617139V3.59998H5.38656C4.43179 3.59998 3.51612 3.97926 2.841 4.65438C2.16587 5.32951 1.78659 6.24518 1.78659 7.19995V7.98852C1.7652 8.21364 1.78837 8.44077 1.85476 8.65694C1.92115 8.87311 2.02947 9.07408 2.17353 9.24839C2.31759 9.4227 2.49458 9.56693 2.69438 9.67283C2.89418 9.77874 3.11288 9.84426 3.33801 9.86565C3.79266 9.90884 4.24585 9.76965 4.59788 9.4787C4.94991 9.18776 5.17194 8.76888 5.21514 8.31423" fill="#D0E3FF"/>
</svg>
