<svg width="24" height="24" viewBox="0 0 24 24" fill="none" xmlns="http://www.w3.org/2000/svg">
<path fill-rule="evenodd" clip-rule="evenodd" d="M19.2 24C20.1493 24 21.0774 23.7185 21.8667 23.1911C22.6561 22.6636 23.2713 21.914 23.6346 21.0369C23.9979 20.1598 24.093 19.1947 23.9078 18.2636C23.7226 17.3325 23.2654 16.4772 22.5941 15.8059C21.9228 15.1346 21.0675 14.6774 20.1364 14.4922C19.2053 14.307 18.2402 14.4021 17.3631 14.7654C16.486 15.1287 15.7364 15.7439 15.2089 16.5333C14.6815 17.3226 14.4 18.2507 14.4 19.2C14.4 20.473 14.9057 21.6939 15.8059 22.5941C16.7061 23.4943 17.927 24 19.2 24ZM19.2 9.6C20.1493 9.6 21.0774 9.31849 21.8667 8.79106C22.6561 8.26363 23.2713 7.51397 23.6346 6.63688C23.9979 5.7598 24.093 4.79468 23.9078 3.86357C23.7226 2.93246 23.2654 2.07718 22.5941 1.40589C21.9228 0.734598 21.0675 0.277442 20.1364 0.0922328C19.2053 -0.0929762 18.2402 0.00207976 17.3631 0.36538C16.486 0.728681 15.7364 1.34391 15.2089 2.13327C14.6815 2.92262 14.4 3.85065 14.4 4.8C14.4 6.07304 14.9057 7.29394 15.8059 8.19411C16.7061 9.09429 17.927 9.6 19.2 9.6ZM4.8 24C5.74935 24 6.67738 23.7185 7.46674 23.1911C8.25609 22.6636 8.87132 21.914 9.23462 21.0369C9.59792 20.1598 9.69298 19.1947 9.50777 18.2636C9.32256 17.3325 8.8654 16.4772 8.19411 15.8059C7.52282 15.1346 6.66754 14.6774 5.73643 14.4922C4.80532 14.307 3.8402 14.4021 2.96312 14.7654C2.08603 15.1287 1.33638 15.7439 0.808946 16.5333C0.281515 17.3226 0 18.2507 0 19.2C0 20.473 0.505713 21.6939 1.40589 22.5941C2.30606 23.4943 3.52696 24 4.8 24ZM4.8 9.6C5.74935 9.6 6.67738 9.31849 7.46674 8.79106C8.25609 8.26363 8.87132 7.51397 9.23462 6.63688C9.59792 5.7598 9.69298 4.79468 9.50777 3.86357C9.32256 2.93246 8.8654 2.07718 8.19411 1.40589C7.52282 0.734598 6.66754 0.277442 5.73643 0.0922328C4.80532 -0.0929762 3.8402 0.00207976 2.96312 0.36538C2.08603 0.728681 1.33638 1.34391 0.808946 2.13327C0.281515 2.92262 0 3.85065 0 4.8C0 6.07304 0.505713 7.29394 1.40589 8.19411C2.30606 9.09429 3.52696 9.6 4.8 9.6Z" fill="white"/>
</svg>
