<svg width="19" height="25" viewBox="0 0 19 25" fill="none" xmlns="http://www.w3.org/2000/svg">
<path d="M16.5635 0H2.8044C2.06062 0 1.34732 0.301491 0.821389 0.838148C0.295462 1.3748 0 2.10267 0 2.86162L0 21.6767C0.000306822 22.0324 0.139006 22.3733 0.385605 22.6246L2.31363 24.6457C2.55091 24.8733 2.86433 25 3.19 25C3.51567 25 3.82909 24.8733 4.06637 24.6457L5.46857 23.1791C5.70778 22.9554 6.02047 22.8313 6.34495 22.8313C6.66942 22.8313 6.98212 22.9554 7.22132 23.1791L8.62352 24.6457C8.86081 24.8733 9.17422 25 9.49989 25C9.82556 25 10.139 24.8733 10.3763 24.6457L11.7785 23.1791C12.0158 22.9515 12.3292 22.8248 12.6548 22.8248C12.9805 22.8248 13.2939 22.9515 13.5312 23.1791L14.9334 24.6457C15.1707 24.8733 15.4841 25 15.8098 25C16.1355 25 16.4489 24.8733 16.6862 24.6457L18.6317 22.6246C18.7514 22.4993 18.8456 22.351 18.9088 22.1883C18.972 22.0256 19.0029 21.8517 18.9998 21.6767V3.79164V2.86162C19.002 2.16452 18.7562 1.49028 18.3082 0.964035C17.8601 0.437785 17.2402 0.0952527 16.5635 0V0ZM4.96028 6.25978H12.2692C12.6179 6.25978 12.9522 6.40111 13.1988 6.65267C13.4453 6.90422 13.5838 7.24541 13.5838 7.60117C13.5838 7.95692 13.4453 8.29811 13.1988 8.54967C12.9522 8.80123 12.6179 8.94255 12.2692 8.94255H4.96028C4.77848 8.96422 4.59425 8.94639 4.41969 8.89022C4.24513 8.83406 4.0842 8.74083 3.94747 8.61666C3.81074 8.4925 3.70132 8.34021 3.62639 8.16981C3.55146 7.99941 3.51272 7.81476 3.51272 7.62799C3.51272 7.44123 3.55146 7.25658 3.62639 7.08618C3.70132 6.91578 3.81074 6.76349 3.94747 6.63933C4.0842 6.51516 4.24513 6.42193 4.41969 6.36577C4.59425 6.3096 4.77848 6.29177 4.96028 6.31344V6.25978ZM4.96028 11.1245H8.76374C9.04776 11.1933 9.30075 11.3579 9.48177 11.5915C9.66279 11.8252 9.76126 12.1144 9.76126 12.4123C9.76126 12.7101 9.66279 12.9993 9.48177 13.233C9.30075 13.4667 9.04776 13.6312 8.76374 13.7H4.96028C4.77848 13.7217 4.59425 13.7038 4.41969 13.6477C4.24513 13.5915 4.0842 13.4983 3.94747 13.3741C3.81074 13.2499 3.70132 13.0976 3.62639 12.9272C3.55146 12.7568 3.51272 12.5722 3.51272 12.3854C3.51272 12.1987 3.55146 12.014 3.62639 11.8436C3.70132 11.6732 3.81074 11.5209 3.94747 11.3968C4.0842 11.2726 4.24513 11.1794 4.41969 11.1232C4.59425 11.067 4.77848 11.0492 4.96028 11.0709" fill="#D0E3FF"/>
</svg>
