<svg width="25" height="24" viewBox="0 0 25 24" fill="none" xmlns="http://www.w3.org/2000/svg">
<path d="M22.5 5.15086C22.5 3.7848 21.9751 2.47469 21.0408 1.50874C20.1064 0.542797 18.8392 0.000132353 17.5179 0.000132353H5.01786C4.36059 -0.00473876 3.70889 0.124893 3.1003 0.38156C2.49171 0.638226 1.93826 1.01685 1.47184 1.49563C1.00542 1.9744 0.635237 2.54386 0.38263 3.17119C0.130024 3.79853 -1.68863e-05 4.47134 1.64468e-09 5.15086V20.5292C0.0094272 21.4563 0.373497 22.3418 1.01262 22.9922C1.65175 23.6425 2.51394 24.0049 3.41071 23.9999H22.7321C23.0276 24.0024 23.3207 23.9446 23.5946 23.8299C23.8684 23.7153 24.1178 23.546 24.3284 23.3317C24.539 23.1174 24.7067 22.8623 24.8219 22.581C24.9372 22.2997 24.9977 21.9977 25 21.6923V7.71699C24.9538 7.04905 24.6751 6.42104 24.2155 5.94923C23.7558 5.47743 23.1464 5.1938 22.5 5.15086ZM2.5 5.15086V4.72625C2.49999 4.44346 2.55415 4.16347 2.65937 3.90243C2.76458 3.6414 2.91876 3.4045 3.11301 3.2054C3.30725 3.0063 3.53772 2.84894 3.7911 2.74241C4.04448 2.63588 4.31576 2.58229 4.58929 2.58473H17.8571C18.1351 2.57481 18.4122 2.62287 18.6718 2.72604C18.9314 2.82922 19.1683 2.98539 19.3683 3.18524C19.5682 3.3851 19.7272 3.62454 19.8358 3.8893C19.9443 4.15405 20.0002 4.43869 20 4.72625V5.15086H2.5ZM18 16.9661C17.5083 16.9698 17.0267 16.8224 16.6162 16.5427C16.2056 16.2629 15.8847 15.8635 15.6941 15.3949C15.5035 14.9263 15.4518 14.4098 15.5455 13.9108C15.6393 13.4118 15.8743 12.9528 16.2207 12.5921C16.5671 12.2314 17.0093 11.9851 17.4913 11.8846C17.9733 11.7841 18.4733 11.8338 18.9278 12.0275C19.3824 12.2212 19.7712 12.5501 20.0447 12.9724C20.3182 13.3948 20.4643 13.8917 20.4643 14.4C20.4643 15.0774 20.2052 15.7273 19.7436 16.208C19.282 16.6888 18.6552 16.9613 18 16.9661Z" fill="#D0E3FF"/>
</svg>
